<?xml version="1.0" standalone="no"?>
<!DOCTYPE svg PUBLIC "-//W3C//DTD SVG 20010904//EN"
 "http://www.w3.org/TR/2001/REC-SVG-20010904/DTD/svg10.dtd">
<svg version="1.0" xmlns="http://www.w3.org/2000/svg"
 width="260.000000pt" height="260.000000pt" viewBox="0 0 260.000000 260.000000"
 preserveAspectRatio="xMidYMid meet">
<metadata>
Created by potrace 1.11, written by Peter Selinger 2001-2013
</metadata>
<g transform="translate(0.000000,260.000000) scale(0.100000,-0.100000)"
fill="#000000" stroke="none">
<path d="M742 2481 c-63 -22 -103 -57 -134 -120 -23 -46 -23 -49 -23 -451 l0
-405 24 -47 c47 -97 144 -145 268 -135 121 9 209 81 232 187 6 28 11 145 11
260 l0 210 -130 0 -130 0 0 -80 0 -80 46 0 45 0 -3 -145 c-3 -135 -5 -146 -26
-167 -32 -32 -102 -32 -134 0 l-23 23 0 379 0 379 23 23 c32 32 102 32 134 0
20 -19 23 -35 26 -112 l4 -90 85 0 86 0 -5 103 c-5 119 -26 176 -84 226 -66
59 -192 77 -292 42z"/>
<path d="M1700 1910 l0 -570 90 0 90 0 0 570 0 570 -90 0 -90 0 0 -570z"/>
<path d="M752 1275 c-65 -20 -111 -61 -141 -124 l-26 -56 0 -395 0 -395 26
-56 c43 -91 128 -139 244 -139 116 0 201 48 244 139 l26 56 0 395 0 395 -26
56 c-31 65 -77 104 -145 125 -58 17 -145 17 -202 -1z m172 -175 c20 -20 21
-30 21 -400 l0 -379 -23 -23 c-32 -32 -102 -32 -134 0 l-23 23 -3 367 c-2 394
-1 404 48 430 33 17 88 8 114 -18z"/>
<path d="M1642 1271 c-99 -34 -150 -109 -159 -234 -6 -81 12 -165 50 -227 12
-19 74 -89 138 -155 64 -66 125 -136 135 -155 13 -24 18 -57 19 -107 0 -89
-20 -118 -85 -118 -62 0 -83 28 -88 115 l-4 70 -86 0 -85 0 5 -83 c8 -127 46
-194 133 -239 87 -45 238 -29 309 32 58 51 81 119 81 235 0 92 -3 105 -33 169
-26 56 -55 91 -151 187 -136 136 -156 168 -156 257 0 58 3 66 29 89 24 20 36
24 65 19 54 -8 74 -35 79 -106 l4 -60 86 0 85 0 -6 73 c-7 95 -30 149 -83 196
-71 62 -178 78 -282 42z"/>
</g>
</svg>
